<?xml version="1.0" encoding="utf-8"?>
<!-- Generator: Adobe Illustrator 22.0.1, SVG Export Plug-In . SVG Version: 6.00 Build 0)  -->
<svg version="1.1" id="Layer_1" xmlns="http://www.w3.org/2000/svg" xmlns:xlink="http://www.w3.org/1999/xlink" x="0px" y="0px"
	 viewBox="0 0 1304.6 1339.9" style="enable-background:new 0 0 1304.6 1339.9;" xml:space="preserve">
<style type="text/css">
	.st0{fill:none;stroke:#F3F5C4;stroke-width:0.5;stroke-miterlimit:10;}
</style>
<g>
	<polyline class="st0" points="796.4,254.3 798.2,271.9 800.1,289.9 800.1,289.9 801.1,299.7 	"/>
	<polyline class="st0" points="775.8,56.7 775.2,50.2 898.1,0.3 1178.7,69.7 1304.3,382.3 1093.2,548 1074.5,589.2 1015.7,589.2
		931.1,645.4 819.4,475.2 819.4,475.2 816.3,446.2 	"/>
	<polyline class="st0" points="788.3,176.8 788.3,176.8 787.3,166.5 786.9,163.3 	"/>
	<polyline class="st0" points="652.3,40.9 652.3,40.9 775.2,50.2 875.4,57.8 881.5,107.3 888,159.4 888,159.4 896,224.3
		898.1,241.8 828.1,384.3 819.4,475.2 813.6,535.7 813.5,535.8 800.1,544.5 733.7,587.8 732.9,588.3 731.6,589.2 731.5,589.2
		652.3,640.9 652.3,640.8 	"/>
	<g>
		<polygon class="st0" points="790.4,280.4 798.2,299.1 826.8,305.2 840,298.1 849.1,260.5 849.1,260.5 809.3,260 		"/>
		<polygon class="st0" points="833.1,272.6 836.2,280.2 830,282.6 823.2,277.6 823.2,272.6 		"/>
	</g>
	<polygon class="st0" points="772,141.5 855.8,263.7 868.4,265.3 812.7,266.1 750.4,383.5 819.7,550.6 731.5,589.2 737.9,551.9
		733.8,587.3 800.1,544.5 736.8,378.3 787.4,255.4 837.7,249.2 	"/>
	<polygon class="st0" points="860.6,67.5 879.6,108.4 890,236.9 818.2,387.7 813.6,535.7 828.1,384.3 898.1,241.9 881.5,107.3 	"/>
	<polygon class="st0" points="888,159.4 964.6,96.3 1082.5,108.4 923.8,151.7 895.9,224.4 	"/>
	<polygon class="st0" points="1082.5,108.4 1118.7,192.5 1217.6,266.7 1082.5,266.7 1039.7,296.8 898.1,241.9 895.9,224.4
		923.8,151.7 	"/>
	<polygon class="st0" points="1015.7,589.2 933.3,617.2 828.1,384.3 819.4,475.2 931.1,645.4 	"/>
	<polygon class="st0" points="1093.2,548 1113.5,497 1069.8,574.2 1015.7,589.2 1074.5,589.2 	"/>
	<polygon class="st0" points="837.7,249.2 772,141.5 772,108.4 766.9,145.3 	"/>
	<polyline class="st0" points="652.3,40.9 652.3,40.9 775.8,56.7 860.6,67.5 879.6,108.4 	"/>
	<line class="st0" x1="652.3" y1="74.3" x2="652.3" y2="74.3"/>
	<polygon class="st0" points="733.8,587.3 800.1,544.5 736.8,378.3 787.4,255.4 726.3,384.3 754.8,547 	"/>
	<polygon class="st0" points="813.6,553.2 839.9,652.8 843.6,681.2 749.7,681.2 733.6,588.3 	"/>
	<polygon class="st0" points="801.3,558.6 824.9,653.3 749.7,681.2 843.6,681.2 839.9,652.8 813.6,553.2 	"/>
	<path class="st0" d="M879.6,108.4"/>
	<polyline class="st0" points="1304.3,382.3 1178.7,69.7 1286,358.8 	"/>
	<polyline class="st0" points="1286,384.3 1093.2,548 1304.3,382.3 	"/>
	<polyline class="st0" points="1286,358.8 1240.6,296.8 1090.7,296.8 1207.3,313.3 1286,384.3 	"/>
	<polyline class="st0" points="516.2,176.8 517.3,166.5 517.3,166.5 517.6,163.3 	"/>
	<polyline class="st0" points="508.2,254.3 506.3,271.9 504.5,289.9 504.5,289.9 503.4,299.7 	"/>
	<polyline class="st0" points="528.7,56.7 529.4,50.2 406.5,0.3 125.9,69.7 0.3,382.3 211.4,548 253.7,498.1 288.9,589.2 368,631.2
		485.2,475.2 485.2,475.2 488.2,446.2 	"/>
	<polyline class="st0" points="652.3,640.9 491,535.7 476.5,384.3 406.5,241.9 429.1,57.8 529.4,50.2 652.3,40.9 	"/>
	<g>
		<polygon class="st0" points="514.2,280.4 506.4,299.1 477.8,305.2 464.6,298.1 455.5,260.5 455.5,260.5 495.3,260 		"/>
		<polygon class="st0" points="471.4,272.6 468.3,280.2 474.5,282.6 481.4,277.6 481.4,272.6 		"/>
	</g>
	<polygon class="st0" points="532.6,141.5 448.7,263.7 436.2,265.3 491.8,266.1 554.1,383.5 484.9,550.6 573.1,589.2 566.7,551.9
		570.8,587.3 504.4,544.5 567.8,378.3 517.2,255.4 466.8,249.2 	"/>
	<polygon class="st0" points="444,67.5 425,108.4 414.6,236.9 486.4,387.7 491,535.7 476.5,384.3 406.5,241.9 423,107.3 	"/>
	<polygon class="st0" points="416.6,159.4 340,96.3 222,108.4 380.8,151.7 408.6,224.4 	"/>
	<polygon class="st0" points="222,108.4 185.9,192.5 87,266.7 222,266.7 264.8,296.8 406.5,241.9 408.6,224.4 380.8,151.7 	"/>
	<polygon class="st0" points="288.8,589.2 368,596.2 476.5,384.3 485.2,475.2 368,631.2 	"/>
	<polygon class="st0" points="466.8,249.2 532.6,141.5 532.6,108.4 537.7,145.3 	"/>
	<line class="st0" x1="652.3" y1="74.3" x2="652.3" y2="74.3"/>
	<polyline class="st0" points="425,108.4 444,67.5 528.7,56.7 652.3,40.9 652.3,40.9 	"/>
	<polygon class="st0" points="570.8,587.3 504.4,544.5 567.8,378.3 517.2,255.4 578.3,384.3 549.7,547 	"/>
	<polygon class="st0" points="491,553.2 464.6,652.8 474.9,709.1 554.8,681.2 570.9,588.3 	"/>
	<path class="st0" d="M425,108.4"/>
	<polyline class="st0" points="18.5,384.3 211.4,548 0.3,382.3 	"/>
	<polyline class="st0" points="18.5,358.8 64,296.8 213.9,296.8 97.3,313.3 18.5,384.3 	"/>
	<polyline class="st0" points="0.3,382.3 125.9,69.7 18.5,358.8 	"/>
	<polygon class="st0" points="555.9,581.7 541.4,670.9 474.9,709.1 554.8,681.2 570.9,588.3 	"/>
	<polyline class="st0" points="18.5,384.3 211.4,548 250.3,500.4 209.4,527.6 18.5,384.3 	"/>
	<polygon class="st0" points="726.3,340.9 652.3,315.7 578.3,334.5 660.9,328.3 705.1,354.8 625.7,349.4 594.6,372.7 627.4,358.4
		690.8,381.7 622.1,372.7 607.1,381.7 642,377.9 699.5,400.5 706.8,458 668.6,440 591,453.1 656,447.1 707.9,473.9 637.4,463
		592.7,477.7 634.7,469.5 713.4,487.5 700.9,390.7 	"/>
	<polygon class="st0" points="594.5,535.2 658,517.3 706.3,537.8 644.1,527.2 594.5,545.8 664.6,539.2 697.7,559.7 653.4,543.8
		589.9,569.6 592.1,535.8 	"/>
	<polygon class="st0" points="733.8,587.3 726.3,765.3 706.3,834.1 691.9,947.7 692.5,985.4 693.9,1070.7 685.5,980 684.2,938.4
		702.7,827.7 724.9,765.6 731.6,588.3 	"/>
	<polyline class="st0" points="617.9,724.1 617,759.2 653.1,751.6 690.6,763.6 658.4,756.8 616.2,764.9 616.1,778.3 651.1,765.7
		700,785.5 647.4,775.6 615.5,789.9 610.3,862.8 657.8,857.1 676.1,880 647.4,863.7 612.2,865.8 610.6,872.7 635.3,872.7
		664.4,885.8 638.7,878 606.5,878 	"/>
	<polyline class="st0" points="617.9,724.1 672.6,709.1 719.5,724.1 662.9,698.2 602.8,713.8 	"/>
	<polyline class="st0" points="694.3,1097.9 691.9,947.7 706.3,834.1 726.3,765.3 733.6,588.3 570.9,588.3 602.8,713.8 604.6,921.5
		620.8,1021.8 646.2,1146.4 675.7,1266.5 662.6,1327.5 687.2,1322 709.8,1339.4 719.5,1292.7 694.3,1097.9 703.4,1167.9
		682.5,1160.5 655.9,1167.9 678.6,1154.4 699.3,1159.8 694.2,1117.6 674.2,1111.3 658.6,1113.2 670.5,1105.2 689.8,1109.9
		688.9,1102.4 679.4,1096.2 646.8,1102.4 684.2,1090.1 694.2,1092.9 	"/>
	<polyline class="st0" points="709.8,1339.4 683.6,1337.3 662.6,1327.5 686.2,1327.5 701.6,1337.2 683.6,1337.3 	"/>
	<polyline class="st0" points="703.4,1167.9 714.7,1292.2 707.2,1320.3 687.2,1322 	"/>
</g>
</svg>
