<?xml version="1.0" encoding="utf-8"?>
<!-- Generator: Adobe Illustrator 22.0.1, SVG Export Plug-In . SVG Version: 6.00 Build 0)  -->
<svg version="1.1" id="Layer_1" xmlns="http://www.w3.org/2000/svg" xmlns:xlink="http://www.w3.org/1999/xlink" x="0px" y="0px"
	 viewBox="0 0 813.1 981.6" style="enable-background:new 0 0 813.1 981.6;" xml:space="preserve">
<style type="text/css">
	.st0{opacity:0.5;}
	.st1{fill:none;stroke:#F19181;stroke-miterlimit:10;}
</style>
<g class="st0">
	<g>
		<g>
			<polygon class="st1" points="607.7,452.8 636.7,338.1 707,314.5 774.8,267.6 812.5,277.9 799.4,359 736.8,450.3 666.6,487.9
				623.8,462.4 			"/>
			<polygon class="st1" points="771.6,345.8 706.9,385.4 667.5,399.7 636.4,460.6 698,440.2 742.1,413.6 			"/>
			<polygon class="st1" points="812.5,277.9 799.4,359 804.4,282.7 715.8,330.6 643.1,343.8 611.4,438 636.7,338.1 707,314.5
				774.8,267.6 			"/>
		</g>
	</g>
	<g>
		<g>
			<polygon class="st1" points="210.2,458.3 178,344.5 107.1,322.8 38,277.8 0.6,289.1 16,369.9 81.1,459.3 152.3,495 194.4,468.3
							"/>
			<polygon class="st1" points="43.3,355.9 109.2,393.7 149,406.9 181.7,466.9 119.5,448.2 74.7,422.8 			"/>
			<polygon class="st1" points="0.6,289.1 16,369.9 8.9,293.7 98.8,339.1 171.7,350.4 206,443.6 178,344.5 107.1,322.8 38,277.8
				"/>
			<polyline class="st1" points="0.6,289.1 16,369.9 8.9,293.7 			"/>
		</g>
	</g>
	<polygon class="st1" points="416.2,980.8 245.9,893.9 170.1,553.3 115.2,520.8 111.3,460.4 280.8,421.2 406.8,298.7 	"/>
	<g>
		<g>
			<polygon class="st1" points="225.8,584.1 219,603.8 193.2,610.5 181.1,603.3 172.3,563.8 172.3,563.8 208.4,562.8 			"/>
			<polygon class="st1" points="186.9,576.3 184.2,584.4 189.9,586.8 196.1,581.5 196,576.2 			"/>
		</g>
	</g>
	<polygon class="st1" points="190,642.4 234.4,641.8 242.5,731.2 221.1,782.7 	"/>
	<polygon class="st1" points="255.7,761.9 279.4,730.6 294.6,737.3 302.8,775.3 272.4,788.2 	"/>
	<polygon class="st1" points="227.9,813.4 260.9,793.3 287.9,822.1 245.9,893.9 	"/>
	<polygon class="st1" points="392.8,312.3 353.1,256.6 295.6,20.2 233.4,5.3 204.6,57.1 233.4,119.9 208.3,323.8 238.3,431
		248.9,453.7 385.2,333.2 	"/>
	<polygon class="st1" points="310.6,81.9 276.1,59 255.1,91.7 255.6,132.1 224.8,190.2 233.4,119.9 204.6,57.1 233.4,5.3
		295.6,20.2 	"/>
	<polygon class="st1" points="255.1,91.7 286.3,134.9 313.3,274 392.8,312.3 353.1,256.6 310.6,81.9 276.1,59 	"/>
	<polygon class="st1" points="406.8,298.7 269.2,432.4 315.6,392.4 353.7,619 354,402.4 407.8,372.9 	"/>
	<polygon class="st1" points="208.3,323.8 247.2,359 238.3,431 	"/>
	<polygon class="st1" points="115.2,520.8 124,467.7 238.3,431 111.3,460.4 	"/>
	<polygon class="st1" points="227.3,561.7 170.1,553.3 139.7,590.1 174.1,566.9 	"/>
	<polygon class="st1" points="413.9,815.9 399.5,797.2 388.1,797.3 366,795 331.7,844.2 349.6,895.4 400.5,918.7 415.4,920.2 	"/>
	<polygon class="st1" points="349.6,895.4 400,926.8 415.4,926.5 415.4,920.2 400.5,918.7 	"/>
	<polyline class="st1" points="416.2,980.8 584.1,889.3 650.4,546.7 704.4,512.6 706.6,452.1 536.1,417.7 406.8,298.7 	"/>
	<g>
		<g>
			<polygon class="st1" points="595.5,579 602.9,598.5 628.9,604.5 640.8,596.9 648.4,557.2 648.4,557.2 612.4,557.2 			"/>
			<polygon class="st1" points="628,570.2 625.3,578.3 630.9,580.7 637.1,575.4 637,570.1 			"/>
		</g>
	</g>
	<polygon class="st1" points="421.1,311.9 459.2,255.1 510.2,17.2 572,0.6 602.1,51.6 575.1,115.2 605.8,318.3 578.8,426.3
		568.9,449.3 429.3,332.6 	"/>
	<polygon class="st1" points="496.9,79.3 530.8,55.5 552.7,87.6 553.2,128 585.7,185.2 575.1,115.2 602.1,51.6 572,0.6 510.2,17.2
		"/>
	<polygon class="st1" points="552.7,87.6 522.7,131.6 499.6,271.4 421.1,311.9 459.2,255.1 496.9,79.3 530.8,55.5 	"/>
	<polyline class="st1" points="406.8,298.7 547.9,428.6 500.5,389.8 468.7,617.4 462.3,400.9 407.8,372.9 	"/>
	<polygon class="st1" points="605.8,318.3 567.9,354.6 578.8,426.3 	"/>
	<polygon class="st1" points="704.4,512.6 694.1,459.8 578.8,426.3 706.6,452.1 	"/>
	<polygon class="st1" points="593.5,556.6 650.4,546.7 681.8,582.6 646.7,560.4 	"/>
	<polyline class="st1" points="413.9,815.9 427.8,796.8 439.2,796.6 461.2,793.7 496.9,841.9 480.4,893.6 430.2,918.3 415.4,920.2
		"/>
	<polyline class="st1" points="415.4,920.2 430.2,918.3 480.4,893.6 430.9,926.3 415.4,926.5 	"/>
	<polygon class="st1" points="412.5,806.7 391.1,770 383.4,770.1 375.2,729.3 348.6,736.5 342.6,792.1 377.9,823.8 387.5,846.1
		398.9,845.9 412.9,832.1 	"/>
	<polygon class="st1" points="366.4,752.8 377.4,787.7 389.8,787.6 397.3,820.6 382,798.9 361.9,793.4 	"/>
	<polygon class="st1" points="342.6,792.1 371.9,827.8 376.5,827.8 387.5,846.1 377.9,823.8 	"/>
	<polygon class="st1" points="375.2,729.3 381.9,775.2 389.7,773.2 409.8,806.1 406.7,808 412.6,810.4 412.5,806.7 391.1,770
		383.4,770.1 	"/>
	<polyline class="st1" points="412.5,806.7 433,769.4 440.6,769.3 447.7,728.3 474.5,734.8 482,790.2 447.6,822.8 438.6,845.4
		427.2,845.5 412.9,832.1 	"/>
	<polygon class="st1" points="457.2,751.6 447.1,786.8 434.8,787 428.2,820.2 442.8,798.1 462.8,792 	"/>
	<polygon class="st1" points="482,790.2 453.8,826.7 449.1,826.8 438.6,845.4 447.6,822.8 	"/>
	<polyline class="st1" points="412.5,806.7 433,769.4 440.6,769.3 447.7,728.3 442.2,774.4 434.4,772.6 415.2,806 418.2,807.5
		412.6,810.4 	"/>
	<path class="st1" d="M349.6,895.4"/>
	<polygon class="st1" points="266.3,904.4 280.7,871.8 322.4,933 	"/>
	<polygon class="st1" points="626.5,669.9 558.2,694.1 583,726.5 583.5,767.2 604.5,783.7 	"/>
	<polygon class="st1" points="598.8,813.3 562.2,778 548.5,814 553.8,855.3 536.6,915.1 584.1,889.3 	"/>
	<polygon class="st1" points="592,658.2 540.2,685.4 520.1,662.3 537,628.1 557.6,646.3 577.4,642.4 	"/>
</g>
</svg>
