<svg xmlns="http://www.w3.org/2000/svg" viewBox="0 0 1202.58 1451.79"><defs><style>.cls-1{fill:none;stroke:#fff;stroke-miterlimit:10;}</style></defs><title>giraffront_2</title><g id="Layer_2" data-name="Layer 2"><g id="Layer_1-2" data-name="Layer 1"><polygon class="cls-1" points="898.91 669.74 941.85 500.04 1045.8 465.12 1146.14 395.73 1202.02 410.95 1182.51 530.96 1089.92 665.96 986.03 721.6 922.69 683.89 898.91 669.74"/><polygon class="cls-1" points="1141.49 511.37 1045.64 570.04 987.35 591.19 941.42 681.32 1032.56 651.04 1097.79 611.69 1141.49 511.37"/><polygon class="cls-1" points="1202.02 410.95 1182.51 530.96 1189.95 418.1 1058.84 488.85 951.35 508.5 904.44 647.88 941.85 500.04 1045.8 465.12 1146.14 395.73 1202.02 410.95"/><polygon class="cls-1" points="310.72 677.87 263.1 509.43 158.23 477.39 56.01 410.8 0.58 427.56 23.4 546.99 119.67 679.38 225.06 732.12 287.34 692.68 310.72 677.87"/><polygon class="cls-1" points="63.86 526.27 161.29 582.27 220.14 601.8 268.54 690.63 176.6 662.88 110.31 625.35 63.86 526.27"/><polygon class="cls-1" points="0.58 427.56 23.4 546.99 12.83 434.37 145.86 501.48 253.84 518.15 304.59 656.18 263.1 509.43 158.23 477.39 56.01 410.8 0.58 427.56"/><polyline class="cls-1" points="0.58 427.56 23.4 546.99 12.83 434.37"/><polygon class="cls-1" points="615.56 1450.96 363.51 1322.46 251.45 818.49 170.17 770.31 164.44 680.92 415.19 622.95 601.6 441.71 615.56 1450.96"/><polygon class="cls-1" points="333.87 863.97 323.78 893.11 285.54 903.13 267.7 892.4 254.71 834 254.71 834 308.1 832.47 333.87 863.97"/><polygon class="cls-1" points="276.35 852.52 272.33 864.38 280.74 867.98 289.82 860.1 289.71 852.33 276.35 852.52"/><polygon class="cls-1" points="280.82 950.23 346.63 949.32 358.5 1081.6 326.93 1157.92 280.82 950.23"/><polygon class="cls-1" points="378.02 1127.04 413.22 1080.84 435.68 1090.69 447.81 1146.96 402.85 1166.06 378.02 1127.04"/><polygon class="cls-1" points="336.9 1203.29 385.79 1173.48 425.76 1216.23 363.51 1322.46 336.9 1203.29"/><polygon class="cls-1" points="580.92 461.83 522.23 379.4 437.11 29.63 345.04 7.51 302.51 84.14 345.09 177.13 307.97 478.88 352.36 637.48 367.98 671.07 569.68 492.81 580.92 461.83"/><polygon class="cls-1" points="459.32 120.89 408.23 87.09 377.13 135.37 377.96 195.18 332.29 281.16 345.09 177.13 302.51 84.14 345.04 7.51 437.11 29.63 459.32 120.89"/><polygon class="cls-1" points="377.13 135.37 423.36 199.29 463.25 405.17 580.92 461.83 522.23 379.4 459.32 120.89 408.23 87.09 377.13 135.37"/><polygon class="cls-1" points="601.6 441.71 398.11 639.56 466.65 580.34 523.02 915.58 523.6 595.18 603.12 551.53 601.6 441.71"/><polygon class="cls-1" points="307.97 478.88 365.49 530.93 352.36 637.48 307.97 478.88"/><polygon class="cls-1" points="170.17 770.31 183.14 691.81 352.36 637.48 164.44 680.92 170.17 770.31"/><polygon class="cls-1" points="336.01 830.87 251.45 818.49 206.37 872.83 257.37 838.61 336.01 830.87"/><polygon class="cls-1" points="612.18 1206.93 590.84 1179.3 574 1179.53 541.3 1176.07 490.47 1248.85 517 1324.62 592.33 1359.11 614.33 1361.28 612.18 1206.93"/><polygon class="cls-1" points="517 1324.62 591.61 1371.02 614.45 1370.71 614.33 1361.28 592.33 1359.11 517 1324.62"/><polyline class="cls-1" points="615.56 1450.96 863.96 1315.54 962.04 808.66 1041.96 758.25 1045.22 668.74 792.96 617.73 601.61 441.71"/><polygon class="cls-1" points="880.92 856.4 891.81 885.26 930.31 894.22 947.85 882.99 959.22 824.25 959.22 824.25 905.81 824.2 880.92 856.4"/><polygon class="cls-1" points="928.91 843.49 924.9 855.36 933.3 858.96 942.38 851.07 942.28 843.31 928.91 843.49"/><polygon class="cls-1" points="622.85 461.25 679.23 377.23 754.65 25.24 846.07 0.58 890.7 76 850.71 170.14 896.16 470.75 856.17 630.51 841.49 664.52 634.93 491.9 622.85 461.25"/><polygon class="cls-1" points="734.97 117.08 785.1 81.87 817.52 129.28 818.35 189.09 866.38 273.77 850.71 170.14 890.7 76 846.07 0.58 754.65 25.24 734.97 117.08"/><polygon class="cls-1" points="817.52 129.28 773.08 194.46 738.9 401.36 622.85 461.25 679.23 377.23 734.97 117.08 785.1 81.87 817.52 129.28"/><polyline class="cls-1" points="601.61 441.71 810.49 633.86 740.34 576.55 693.27 913.22 683.83 592.97 603.13 551.53"/><polygon class="cls-1" points="896.16 470.75 840.1 524.37 856.17 630.51 896.16 470.75"/><polygon class="cls-1" points="1041.96 758.25 1026.83 680.14 856.17 630.51 1045.22 668.74 1041.96 758.25"/><polygon class="cls-1" points="877.86 823.38 962.04 808.66 1008.61 861.74 956.68 828.94 877.86 823.38"/><polyline class="cls-1" points="612.18 1206.93 632.76 1178.71 649.6 1178.48 682.2 1174.12 735.02 1245.47 710.59 1321.94 636.25 1358.5 614.31 1361.28"/><polyline class="cls-1" points="614.31 1361.28 636.25 1358.5 710.59 1321.94 637.29 1370.39 614.45 1370.71"/><polygon class="cls-1" points="610.13 1193.44 578.36 1139.1 567.05 1139.26 554.91 1078.88 515.48 1089.52 506.72 1171.81 558.92 1218.66 573.13 1251.62 589.97 1251.38 610.65 1230.92 610.13 1193.44"/><polygon class="cls-1" points="541.82 1113.66 558.19 1165.33 576.46 1165.08 587.57 1213.99 564.95 1181.83 535.24 1173.72 541.82 1113.66"/><polygon class="cls-1" points="506.72 1171.81 549.95 1224.64 556.8 1224.55 573.13 1251.62 558.92 1218.66 506.72 1171.81"/><polygon class="cls-1" points="554.91 1078.88 564.87 1146.78 576.33 1143.87 606.13 1192.51 601.5 1195.32 610.21 1198.87 610.13 1193.44 578.36 1139.1 567.05 1139.26 554.91 1078.88"/><polyline class="cls-1" points="610.14 1193.44 640.39 1138.24 651.7 1138.09 662.17 1077.4 701.88 1086.94 712.91 1168.96 662.02 1217.23 648.73 1250.57 631.9 1250.81 610.65 1230.92"/><polygon class="cls-1" points="676.21 1111.8 661.28 1163.9 643.01 1164.16 633.25 1213.36 654.98 1180.58 684.46 1171.66 676.21 1111.8"/><polygon class="cls-1" points="712.91 1168.96 671.16 1222.97 664.3 1223.06 648.73 1250.57 662.02 1217.23 712.91 1168.96"/><polyline class="cls-1" points="610.14 1193.44 640.39 1138.24 651.7 1138.09 662.17 1077.4 654.09 1145.55 642.55 1142.96 614.11 1192.4 618.5 1194.55 610.21 1198.87"/><polygon class="cls-1" points="393.76 1337.88 415.03 1289.71 476.73 1380.18 393.76 1337.88"/><polygon class="cls-1" points="926.77 990.95 825.7 1026.73 862.31 1074.63 863.15 1135 894.2 1159.27 926.77 990.95"/><polygon class="cls-1" points="885.71 1203.13 831.65 1150.94 811.33 1204.16 819.22 1265.34 793.71 1353.84 863.96 1315.54 885.71 1203.13"/><polygon class="cls-1" points="875.75 973.63 799.07 1013.95 769.23 979.67 794.32 929.11 824.72 956.08 854.05 950.19 875.75 973.63"/></g></g></svg>
