<svg xmlns="http://www.w3.org/2000/svg" viewBox="0 0 1204.86 1454.59"><defs><style>.cls-1{fill:none;stroke:#fff;stroke-miterlimit:10;stroke-width:3px;}</style></defs><title>giraffront_1</title><g id="Layer_2" data-name="Layer 2"><g id="Layer_1-2" data-name="Layer 1"><polygon class="cls-1" points="900.06 670.9 943 501.21 1046.95 466.28 1147.29 396.89 1203.17 412.11 1183.66 532.12 1091.08 667.13 987.19 722.76 923.84 685.06 900.06 670.9"/><polygon class="cls-1" points="1142.64 512.53 1046.79 571.21 988.5 592.35 942.57 682.49 1033.71 652.2 1098.94 612.86 1142.64 512.53"/><polygon class="cls-1" points="1203.17 412.11 1183.66 532.12 1191.11 419.26 1059.99 490.01 952.5 509.67 905.59 649.05 943 501.21 1046.95 466.28 1147.29 396.89 1203.17 412.11"/><polygon class="cls-1" points="311.87 679.04 264.25 510.59 159.38 478.55 57.16 411.96 1.73 428.73 24.55 548.15 120.83 680.54 226.21 733.29 288.49 693.84 311.87 679.04"/><polygon class="cls-1" points="65.01 527.43 162.45 583.43 221.29 602.96 269.7 691.79 177.75 664.04 111.46 626.51 65.01 527.43"/><polygon class="cls-1" points="1.73 428.73 24.55 548.15 13.98 435.54 147.01 502.64 255 519.31 305.74 657.34 264.25 510.59 159.38 478.55 57.16 411.96 1.73 428.73"/><polyline class="cls-1" points="1.73 428.73 24.55 548.15 13.98 435.54"/><polygon class="cls-1" points="616.71 1452.13 364.66 1323.62 252.6 819.65 171.32 771.47 165.59 682.08 416.35 624.11 602.75 442.88 616.71 1452.13"/><polygon class="cls-1" points="335.02 865.13 324.93 894.28 286.69 904.3 268.85 893.56 255.86 835.16 255.86 835.16 309.25 833.63 335.02 865.13"/><polygon class="cls-1" points="277.5 853.68 273.49 865.54 281.89 869.15 290.97 861.26 290.87 853.5 277.5 853.68"/><polygon class="cls-1" points="281.97 951.4 347.78 950.49 359.65 1082.76 328.08 1159.08 281.97 951.4"/><polygon class="cls-1" points="379.17 1128.2 414.37 1082 436.83 1091.85 448.97 1148.13 404 1167.23 379.17 1128.2"/><polygon class="cls-1" points="338.05 1204.45 386.94 1174.64 426.91 1217.39 364.66 1323.62 338.05 1204.45"/><polygon class="cls-1" points="582.07 462.99 523.39 380.57 438.26 30.8 346.19 8.67 303.66 85.3 346.24 178.3 309.12 480.04 353.51 638.64 369.13 672.24 570.84 493.97 582.07 462.99"/><polygon class="cls-1" points="460.47 122.06 409.38 88.25 378.29 136.53 379.11 196.34 333.44 282.32 346.24 178.3 303.66 85.3 346.19 8.67 438.26 30.8 460.47 122.06"/><polygon class="cls-1" points="378.29 136.53 424.51 200.46 464.4 406.33 582.07 462.99 523.39 380.57 460.47 122.06 409.38 88.25 378.29 136.53"/><polygon class="cls-1" points="602.75 442.88 399.26 640.72 467.81 581.5 524.17 916.74 524.75 596.35 604.27 552.7 602.75 442.88"/><polygon class="cls-1" points="309.12 480.04 366.64 532.09 353.51 638.64 309.12 480.04"/><polygon class="cls-1" points="171.32 771.47 184.29 692.97 353.51 638.64 165.59 682.08 171.32 771.47"/><polygon class="cls-1" points="337.16 832.03 252.6 819.65 207.52 874 258.52 839.77 337.16 832.03"/><polygon class="cls-1" points="613.33 1208.09 591.99 1180.46 575.15 1180.69 542.45 1177.23 491.62 1250.01 518.15 1325.78 593.48 1360.27 615.48 1362.44 613.33 1208.09"/><polygon class="cls-1" points="518.15 1325.78 592.76 1372.19 615.6 1371.87 615.48 1362.44 593.48 1360.27 518.15 1325.78"/><polyline class="cls-1" points="616.72 1452.13 865.11 1316.7 963.2 809.83 1043.11 759.41 1046.37 669.9 794.11 618.89 602.76 442.88"/><polygon class="cls-1" points="882.07 857.57 892.96 886.42 931.46 895.38 949 884.15 960.37 825.42 960.37 825.42 906.96 825.37 882.07 857.57"/><polygon class="cls-1" points="930.06 844.66 926.05 856.52 934.45 860.12 943.53 852.24 943.43 844.47 930.06 844.66"/><polygon class="cls-1" points="624 462.41 680.38 378.4 755.8 26.41 847.22 1.75 891.85 77.17 851.86 171.31 897.31 471.91 857.32 631.67 842.64 665.69 636.08 493.07 624 462.41"/><polygon class="cls-1" points="736.12 118.25 786.25 83.04 818.67 130.44 819.5 190.25 867.53 274.93 851.86 171.31 891.85 77.17 847.22 1.75 755.8 26.41 736.12 118.25"/><polygon class="cls-1" points="818.67 130.44 774.23 195.62 740.05 402.52 624 462.41 680.38 378.4 736.12 118.25 786.25 83.04 818.67 130.44"/><polyline class="cls-1" points="602.76 442.88 811.64 635.02 741.49 577.72 694.42 914.39 684.98 594.13 604.28 552.7"/><polygon class="cls-1" points="897.31 471.91 841.25 525.53 857.32 631.67 897.31 471.91"/><polygon class="cls-1" points="1043.11 759.41 1027.98 681.3 857.32 631.67 1046.37 669.9 1043.11 759.41"/><polygon class="cls-1" points="879.01 824.54 963.2 809.83 1009.76 862.9 957.84 830.11 879.01 824.54"/><polyline class="cls-1" points="613.33 1208.09 633.92 1179.88 650.75 1179.65 683.35 1175.29 736.17 1246.63 711.75 1323.1 637.4 1359.66 615.46 1362.44"/><polyline class="cls-1" points="615.46 1362.44 637.4 1359.66 711.75 1323.1 638.44 1371.56 615.61 1371.87"/><polygon class="cls-1" points="611.28 1194.61 579.51 1140.27 568.21 1140.42 556.06 1080.05 516.63 1090.68 507.87 1172.97 560.08 1219.82 574.28 1252.78 591.12 1252.55 611.8 1232.08 611.28 1194.61"/><polygon class="cls-1" points="542.97 1114.82 559.34 1166.49 577.61 1166.24 588.72 1215.15 566.1 1182.99 536.39 1174.89 542.97 1114.82"/><polygon class="cls-1" points="507.87 1172.97 551.1 1225.81 557.96 1225.71 574.28 1252.78 560.08 1219.82 507.87 1172.97"/><polygon class="cls-1" points="556.06 1080.05 566.02 1147.95 577.49 1145.04 607.28 1193.67 602.65 1196.49 611.36 1200.03 611.28 1194.61 579.51 1140.27 568.21 1140.42 556.06 1080.05"/><polyline class="cls-1" points="611.29 1194.61 641.54 1139.41 652.85 1139.25 663.32 1078.56 703.03 1088.1 714.06 1170.12 663.17 1218.4 649.88 1251.74 633.05 1251.97 611.81 1232.08"/><polygon class="cls-1" points="677.37 1112.96 662.44 1165.07 644.16 1165.32 634.41 1214.52 656.13 1181.75 685.61 1172.82 677.37 1112.96"/><polygon class="cls-1" points="714.06 1170.12 672.31 1224.13 665.46 1224.23 649.88 1251.74 663.17 1218.4 714.06 1170.12"/><polyline class="cls-1" points="611.29 1194.61 641.54 1139.41 652.85 1139.25 663.32 1078.56 655.24 1146.71 643.7 1144.12 615.26 1193.56 619.65 1195.71 611.36 1200.03"/><polygon class="cls-1" points="394.91 1339.04 416.18 1290.87 477.88 1381.35 394.91 1339.04"/><polygon class="cls-1" points="927.92 992.11 826.85 1027.9 863.46 1075.79 864.3 1136.16 895.35 1160.43 927.92 992.11"/><polygon class="cls-1" points="886.86 1204.3 832.8 1152.1 812.49 1205.33 820.37 1266.5 794.86 1355 865.11 1316.7 886.86 1204.3"/><polygon class="cls-1" points="876.9 974.79 800.22 1015.11 770.38 980.83 795.47 930.27 825.87 957.24 855.2 951.36 876.9 974.79"/></g></g></svg>
