<?xml version="1.0" encoding="utf-8"?>
<!-- Generator: Adobe Illustrator 22.0.1, SVG Export Plug-In . SVG Version: 6.00 Build 0)  -->
<svg version="1.1" id="Layer_1" xmlns="http://www.w3.org/2000/svg" xmlns:xlink="http://www.w3.org/1999/xlink" x="0px" y="0px"
	 viewBox="0 0 1016.9 1301.7" style="enable-background:new 0 0 1016.9 1301.7;" xml:space="preserve">
<style type="text/css">
	.st0{opacity:0.5;}
	.st1{fill:none;stroke:#3CBAC8;stroke-miterlimit:10;}
	.st2{fill:#3CBAC8;}
</style>
<g class="st0">
	<polyline class="st1" points="508.5,1301.5 508.5,1036.9 337.9,954.3 133.2,651.3 77.5,856.7 14.3,898.8 73.8,958.4 30.1,1017.2
		124,1007.2 135.3,1102 156.4,1091.8 144.7,1173.1 219.7,1087 247.2,1185.2 292.3,1132.5 264,1242.6 370.1,1186.7 420.9,1274.3
		474.6,1215.4 508.5,1301.5 	"/>
	<polygon class="st1" points="508.5,962.1 412,962.1 344.9,770 231.8,695.7 233.7,442.1 378.5,291.2 508.5,244 	"/>
	<polygon class="st1" points="508.5,871.1 504.9,794.7 478.8,771 420.6,751.3 408.7,713.4 418.9,711.1 439.3,747.3 434.5,735.4
		439.7,729.6 451.9,725.9 482.9,739.8 508.5,745 	"/>
	<polygon class="st1" points="452.3,734.8 480.5,745.5 508.5,749.5 508.5,784.1 488,771.2 478.3,754.1 464.6,741.7 	"/>
	<polygon class="st1" points="344.9,770 403.1,694.7 420.6,751.3 478.8,771 504.9,794.7 508.5,871.1 437.2,906 392.4,906 	"/>
	<polygon class="st1" points="322.8,533.5 348,542.5 384.7,541.9 404.9,554.7 403.3,564.3 383.2,554.7 342.9,559.1 	"/>
	<polygon class="st1" points="400.2,551.8 391.7,534.7 388.4,500.7 379.9,495 341.1,493.1 323.2,507.9 300.1,515.1 321.4,521.5
		322.8,533.5 348,542.5 384.7,541.9 	"/>
	<polygon class="st1" points="340.4,505.8 336.9,518.4 347.2,532 376.2,534.7 386.1,526.5 383.7,504.1 375.2,500.8 345,500.1 	"/>
	<polygon class="st1" points="370,507.4 376.2,509.2 377.1,517.6 368,520.7 358.9,515.1 360.8,510 	"/>
	<polygon class="st1" points="323.2,507.9 338.9,485.6 388,483 412.1,511.7 400.2,551.8 391.7,534.7 388.4,500.7 379.9,495
		341.1,493.1 	"/>
	<polygon class="st1" points="392.4,906 436.2,917.3 508.5,917.3 508.5,962.1 412,962.1 	"/>
	<polygon class="st1" points="508.5,436.6 501.9,380.4 501.9,260.4 508.5,244 	"/>
	<polygon class="st1" points="508.5,694.7 508.5,745 482.9,739.8 451.9,725.9 439.7,729.6 434.5,735.4 439.3,747.3 418.9,711.1
		408.7,713.4 403.1,694.7 403.1,629.2 426.7,504.8 417.7,694.7 458.6,686.2 	"/>
	<polygon class="st1" points="501.9,337.3 452.3,408.1 413.3,401.8 413.3,374.2 436.3,333.5 413.3,333.5 401.5,348.6 397.2,333.5
		426.7,310.7 480.4,289.2 501.9,289.2 	"/>
	<polygon class="st1" points="401.5,348.6 408.7,404.7 452.3,412.4 455.8,425.4 501.9,384.5 501.9,337.3 452.3,408.1 413.3,401.8
		413.3,374.2 436.3,333.5 413.3,333.5 	"/>
	<polygon class="st1" points="232.9,549.3 268.2,680.3 362.4,748.7 344.9,770 231.8,695.7 	"/>
	<polygon class="st1" points="362.4,748.7 268.2,680.3 232.9,549.3 279.8,675.2 	"/>
	<polygon class="st1" points="233.7,442.1 378.5,291.2 508.5,309.8 508.5,232.4 369,268.5 275.9,379.4 	"/>
	<polyline class="st1" points="336.9,34.3 283.3,77.3 231.8,77.3 200.7,153.5 115,201.2 115,258.3 51.5,312.3 73.7,348.6 0.7,442.1
		70.5,521.9 14.3,630.5 89.6,770 41.9,871.1 121.3,871.1 194.4,962.1 254.6,962.1 267.4,1046 360.1,1014.2 397.2,1065.1
		465.3,1065.1 508.5,1119.3 508.5,962.1 412,962.1 392.4,906 344.9,770 231.8,695.7 233.7,442.1 369,268.5 508.5,271.9 501.9,16.4
		"/>
	<polyline class="st1" points="415.9,44.6 473.3,137.4 428.9,41.8 	"/>
	<polyline class="st1" points="391.5,53 371.1,124.9 362.4,64.4 	"/>
	<polygon class="st1" points="369,218.4 301.7,80.6 231.8,77.3 217.7,112 233.7,95.6 288.9,99.7 	"/>
	<polygon class="st1" points="115,201.2 231.8,137.4 127.6,210.3 115,299.5 	"/>
	<polygon class="st1" points="66.6,299.5 51.5,312.3 88.4,421.4 165.2,412.1 96.3,370.8 57.6,313.1 	"/>
	<polygon class="st1" points="173.4,303 231.8,274.7 281.1,289.2 233.7,288.9 	"/>
	<polygon class="st1" points="73.7,348.6 20.1,436.6 106.4,556.4 0.7,442.1 	"/>
	<polygon class="st1" points="232.9,549.3 129.8,612.1 97.5,630.5 128.8,570.1 232.9,521.9 	"/>
	<polygon class="st1" points="14.3,630.5 96.7,748.7 191,759.4 89.6,770 	"/>
	<polygon class="st1" points="191,694.7 231.8,695.7 344.9,770 426.7,996.8 338.6,775.5 231.8,701.7 	"/>
	<polygon class="st1" points="41.9,871.1 227,871.1 244.2,817.3 211,838.7 	"/>
	<polygon class="st1" points="267.4,1046 377.1,1007.1 377.1,909.1 353.4,1002.5 	"/>
	<polygon class="st1" points="462,1028.1 465.3,1065.1 508.5,1119.3 	"/>
	<polygon class="st1" points="360.1,813.3 308.8,850.1 326.3,920 	"/>
	<polygon class="st1" points="15.8,900.9 81.4,936.3 138.7,936.3 75.2,967.2 	"/>
	<polygon class="st1" points="156,986.7 194.4,962.1 254.6,962.1 	"/>
	<polygon class="st1" points="123.2,996.3 135.3,1102 181.4,1078.6 149.5,1079.2 	"/>
	<polygon class="st1" points="246.9,1185.3 308.2,1113.4 233,1134.4 236.7,1147.7 	"/>
	<polygon class="st1" points="360.1,1014.2 438.4,1119.6 341.4,1021.6 	"/>
	<polygon class="st1" points="380.1,1107.1 360.1,1164.6 420.9,1274.3 380.7,1160.3 	"/>
	<polygon class="st1" points="508.5,1073.8 465.8,1163.6 508.5,1181.8 	"/>
	<polyline class="st1" points="508.5,1301.5 508.5,1037 679,954.4 883.7,651.4 939.4,856.8 1002.6,898.9 943.2,958.4 986.9,1017.3
		893,1007.2 881.6,1102.1 860.5,1091.8 872.2,1173.1 797.2,1087 769.7,1185.2 724.6,1132.5 752.9,1242.6 646.8,1186.7 596.1,1274.4
		542.4,1215.4 508.5,1301.5 	"/>
	<polygon class="st1" points="508.5,962.1 604.9,962.1 672.1,770 785.1,695.7 783.2,442.1 638.5,291.2 508.5,244 	"/>
	<polygon class="st1" points="508.5,871.1 512.1,794.7 538.1,771 596.3,751.3 608.2,713.4 598,711.1 577.6,747.3 582.4,735.4
		577.3,729.6 565.1,725.9 534,739.8 508.5,745 	"/>
	<polygon class="st1" points="564.6,734.8 536.5,745.5 508.5,749.5 508.5,784.1 529,771.2 538.6,754.1 552.3,741.7 	"/>
	<polygon class="st1" points="672.1,770 613.9,694.7 596.3,751.3 538.1,771 512.1,794.7 508.5,871.1 579.7,906 624.5,906 	"/>
	<polygon class="st1" points="694.1,533.9 668.7,542.6 632,541.6 611.7,554 613.2,563.7 633.4,554.3 673.6,559.3 	"/>
	<polygon class="st1" points="616.4,551.2 625.1,534.2 628.9,500.3 637.4,494.7 676.3,493.3 694,508.3 717,515.8 695.6,522
		694.1,533.9 668.7,542.6 632,541.6 	"/>
	<polygon class="st1" points="676.8,506 680.1,518.6 669.6,532.1 640.6,534.5 630.8,526.1 633.6,503.8 642,500.6 672.3,500.3 	"/>
	<polygon class="st1" points="647.2,507.2 641,509 639.9,517.3 649,520.5 658.2,515.1 656.4,510 	"/>
	<polygon class="st1" points="694,508.3 678.5,485.9 629.5,482.6 605.1,511 616.4,551.2 625.1,534.2 628.9,500.3 637.4,494.7
		676.3,493.3 	"/>
	<polygon class="st1" points="624.5,906 580.7,917.3 508.5,917.3 508.5,962.1 604.9,962.1 	"/>
	<polygon class="st1" points="508.5,436.6 515,380.4 515,260.4 508.5,244 	"/>
	<polygon class="st1" points="508.5,694.7 508.5,745 534,739.8 565.1,725.9 577.3,729.6 582.4,735.4 577.6,747.3 598,711.1
		608.2,713.4 613.9,694.7 613.9,629.2 590.3,504.8 599.3,694.7 558.4,686.2 	"/>
	<polygon class="st1" points="515,337.3 564.6,408.1 603.6,401.7 603.6,374.2 580.6,333.5 603.6,333.5 615.4,348.6 619.7,333.5
		590.3,310.7 536.6,289.2 515,289.2 	"/>
	<polygon class="st1" points="615.4,348.6 608.2,404.7 564.6,412.4 561.2,425.4 515,384.5 515,337.3 564.6,408.1 603.6,401.7
		603.6,374.2 580.6,333.5 603.6,333.5 	"/>
	<polygon class="st1" points="784,549.3 748.7,680.3 654.5,748.7 672.1,770 785.1,695.7 	"/>
	<polygon class="st1" points="654.5,748.7 748.7,680.3 784,549.3 737.1,675.2 	"/>
	<polygon class="st1" points="783.2,442.1 638.5,291.2 508.5,309.8 508.5,232.4 647.9,268.5 741,379.4 	"/>
	<polygon class="st1" points="680.1,23.4 733.6,77.3 785.1,77.3 816.2,153.5 901.9,201.2 901.9,258.3 965.5,312.3 943.2,348.6
		1016.3,442.1 946.4,521.8 1002.6,630.5 927.3,770 975,871.1 895.6,871.1 822.5,962.1 762.4,962.1 749.5,1046 656.8,1014.2
		619.7,1065 551.7,1065 508.5,1119.3 508.5,962.1 604.9,962.1 624.5,906 672.1,770 785.1,695.7 783.2,442.1 647.9,268.5
		508.5,271.9 503.3,73.2 561.2,0.5 	"/>
	<polyline class="st1" points="611.3,72.3 550,183.2 572.7,39.9 	"/>
	<polygon class="st1" points="647.9,218.4 715.3,80.5 785.1,77.3 799.3,112 783.2,95.6 728.1,99.7 	"/>
	<polygon class="st1" points="901.9,201.2 785.1,137.4 889.4,210.3 901.9,299.5 	"/>
	<polygon class="st1" points="950.4,299.5 965.5,312.3 926.1,379.4 826,408.1 910.5,353.8 959.3,313.1 	"/>
	<polygon class="st1" points="843.5,303 785.1,274.7 735.8,289.2 783.2,288.9 	"/>
	<polygon class="st1" points="943.2,348.6 996.9,436.6 910.5,556.3 1016.3,442.1 	"/>
	<polygon class="st1" points="783.2,489.1 862.7,565.5 934.3,576.1 843.5,580.9 784,521.8 	"/>
	<polygon class="st1" points="1002.6,630.5 920.2,748.7 826,759.4 927.3,770 	"/>
	<polygon class="st1" points="826,694.7 785.1,695.7 672.1,770 590.3,996.8 678.4,775.5 785.1,748.7 	"/>
	<polygon class="st1" points="975,871.1 789.9,871.1 772.7,817.3 811.7,844.2 	"/>
	<polygon class="st1" points="749.5,1046 639.8,1007.1 639.8,909 663.5,1002.5 	"/>
	<polygon class="st1" points="554.9,1028.1 551.7,1065 508.5,1119.3 	"/>
	<polygon class="st1" points="656.8,829.7 691.5,882.1 724.5,882.1 	"/>
	<polygon class="st1" points="995.8,900.8 929.3,937.8 872.9,936.3 935.9,967.2 	"/>
	<polygon class="st1" points="860.9,986.7 822.5,962.1 762.4,962.1 	"/>
	<polygon class="st1" points="895.2,985.9 882,1102 846.9,1086.3 867.8,1079.2 	"/>
	<polygon class="st1" points="769.7,1185.1 688,1114.2 692.3,1081.7 765.7,1163.9 780.1,1148.3 	"/>
	<polygon class="st1" points="656.8,1014.2 600.9,1091.6 675.5,1021.6 	"/>
	<polygon class="st1" points="634.1,1155 647.5,1186.1 596.1,1274.4 614.3,1175.8 	"/>
	<polygon class="st1" points="508.5,1073.8 523.4,1153.4 508.5,1181.8 	"/>
	<polygon class="st1" points="762.4,153.6 740.8,122.4 736.3,265.4 708.1,340.3 752.6,258.2 	"/>
	<g>
		<polygon class="st1" points="752.6,255.5 758.3,173 901.9,198.5 810.1,196.7 893.9,222.1 862.8,224 914.6,291.7 836.5,222.1
			786.6,224.9 		"/>
		<polygon class="st1" points="786.6,224.9 828.9,222.5 850.6,267.1 826,238.9 805,235.3 823.1,246.9 814.4,264.2 803.6,244
			752.6,255.5 		"/>
	</g>
	<g>
		<polygon class="st1" points="272.7,279 267.1,196.5 176.5,212.6 131.2,232.4 215.3,220.2 174.8,232.4 131.5,245.6 162.6,247.5
			135.8,282.5 119.8,320.2 149.6,280.7 188.9,245.6 238.8,248.4 		"/>
		<polygon class="st1" points="238.8,248.4 196.5,246 174.8,290.6 199.4,262.4 220.4,258.8 202.3,270.4 211,287.7 221.8,267.4
			272.7,279 		"/>
	</g>
	<polygon class="st1" points="263,114.6 297.4,274.7 308.8,340.3 264.3,258.2 	"/>
	<polygon class="st1" points="501.9,260.4 510.2,186.7 442.5,163 480.9,205 	"/>
	<polygon class="st1" points="275.9,379.4 217.6,391.6 166.4,367.8 210.3,408 	"/>
	<polygon class="st1" points="508.5,871.1 436.1,902.2 392.4,906 447.9,909.1 479.6,899.4 508.5,904.7 	"/>
	<polygon class="st1" points="508.5,871.1 580.9,901.5 624.5,906 569.1,909 538.5,899.2 508.5,904.6 	"/>
	<g>
		<g>
			<path class="st2" d="M368.8,795.2c0.6,0,3.3-1.2,1.9-1.2C370,794,367.4,795.2,368.8,795.2L368.8,795.2z"/>
		</g>
	</g>
	<g>
		<g>
			<path class="st2" d="M375.3,775.4c0.9,0,3.1-1.3,1.2-1.3C375.7,774.1,373.4,775.4,375.3,775.4L375.3,775.4z"/>
		</g>
	</g>
	<g>
		<g>
			<path class="st2" d="M392.5,779.5c1,0,3.1-1.5,1.2-1.5C392.7,778,390.6,779.5,392.5,779.5L392.5,779.5z"/>
		</g>
	</g>
	<g>
		<g>
			<path class="st2" d="M414.2,781.8c1.7,0,2.2-2.2,0.2-2.2C412.7,779.6,412.2,781.8,414.2,781.8L414.2,781.8z"/>
		</g>
	</g>
	<g>
		<g>
			<path class="st2" d="M395.6,797.7c1.7,0,2.2-2.2,0.2-2.2C394.2,795.5,393.7,797.7,395.6,797.7L395.6,797.7z"/>
		</g>
	</g>
	<g>
		<g>
			<path class="st2" d="M427.6,795.5c1.2,0,3.1-1.7,1.1-1.7C427.6,793.7,425.6,795.5,427.6,795.5L427.6,795.5z"/>
		</g>
	</g>
	<g>
		<g>
			<path class="st2" d="M377,814.4c0.7,0,3.3-1.2,1.9-1.2C378.2,813.2,375.5,814.4,377,814.4L377,814.4z"/>
		</g>
	</g>
	<g>
		<g>
			<path class="st2" d="M406.1,811.8c0.7,0,3.3-1.2,1.9-1.2C407.3,810.5,404.6,811.8,406.1,811.8L406.1,811.8z"/>
		</g>
	</g>
	<g>
		<g>
			<path class="st2" d="M424.3,815.3c1.2,0,3-1.8,1.1-1.8C424.2,813.6,422.3,815.3,424.3,815.3L424.3,815.3z"/>
		</g>
	</g>
	<g>
		<g>
			<path class="st2" d="M446.1,810.7c1.2,0,3-1.8,1.1-1.8C446,808.9,444.2,810.7,446.1,810.7L446.1,810.7z"/>
		</g>
	</g>
	<g>
		<g>
			<path class="st2" d="M654.4,781.9c0.9,0,3.1-1.4,1.2-1.4C654.7,780.5,652.4,781.9,654.4,781.9L654.4,781.9z"/>
		</g>
	</g>
	<g>
		<g>
			<path class="st2" d="M627.4,783c1.6,0,2.2-2,0.3-2C626,780.9,625.4,783,627.4,783L627.4,783z"/>
		</g>
	</g>
	<g>
		<g>
			<path class="st2" d="M601,793.1c1,0,3.1-1.5,1.2-1.5C601.1,791.6,599,793.1,601,793.1L601,793.1z"/>
		</g>
	</g>
	<g>
		<g>
			<path class="st2" d="M585.8,789c1.7,0,2.2-2.2,0.2-2.2C584.4,786.8,583.9,789,585.8,789L585.8,789z"/>
		</g>
	</g>
	<g>
		<g>
			<path class="st2" d="M642.5,796.1c1.1,0,3.1-1.6,1.1-1.6C642.6,794.5,640.6,796.1,642.5,796.1L642.5,796.1z"/>
		</g>
	</g>
	<g>
		<g>
			<path class="st2" d="M618.7,798.9c0.9,0,3.1-1.3,1.2-1.3C619.1,797.6,616.8,798.9,618.7,798.9L618.7,798.9z"/>
		</g>
	</g>
	<g>
		<g>
			<path class="st2" d="M586.9,805.8c1.1,0,3.1-1.6,1.1-1.6C587,804.2,584.9,805.8,586.9,805.8L586.9,805.8z"/>
		</g>
	</g>
	<g>
		<g>
			<path class="st2" d="M602.8,807c0.6,0,3.3-1.2,1.9-1.2C604.1,805.8,601.4,807,602.8,807L602.8,807z"/>
		</g>
	</g>
	<g>
		<g>
			<path class="st2" d="M627,814.7c1.2,0,3.1-1.7,1.1-1.7C626.9,813,625,814.7,627,814.7L627,814.7z"/>
		</g>
	</g>
	<g>
		<g>
			<path class="st2" d="M646.3,808c1.2,0,3.1-1.7,1.1-1.7C646.2,806.3,644.3,808,646.3,808L646.3,808z"/>
		</g>
	</g>
	<g>
		<g>
			<path class="st2" d="M564.6,799.1c1,0,3.1-1.6,1.1-1.6C564.7,797.5,562.7,799.1,564.6,799.1L564.6,799.1z"/>
		</g>
	</g>
	<g>
		<g>
			<path class="st2" d="M435.1,783.3c0.6,0,3.3-1.2,1.9-1.2C436.4,782.1,433.7,783.3,435.1,783.3L435.1,783.3z"/>
		</g>
	</g>
	<g>
		<g>
			<path class="st2" d="M640.3,827.4c1.3,0,3-1.9,1.1-1.9C640.1,825.5,638.4,827.4,640.3,827.4L640.3,827.4z"/>
		</g>
	</g>
	<line class="st1" x1="336.9" y1="34.3" x2="501.9" y2="16.4"/>
</g>
</svg>
