<?xml version="1.0" encoding="utf-8"?>
<!-- Generator: Adobe Illustrator 22.0.1, SVG Export Plug-In . SVG Version: 6.00 Build 0)  -->
<svg version="1.1" id="Layer_1" xmlns="http://www.w3.org/2000/svg" xmlns:xlink="http://www.w3.org/1999/xlink" x="0px" y="0px"
	 viewBox="0 0 720.7 815.9" style="enable-background:new 0 0 720.7 815.9;" xml:space="preserve">
<style type="text/css">
	.st0{opacity:0.5;}
	.st1{fill:none;stroke:#93EDD4;stroke-miterlimit:10;}
</style>
<g class="st0">
	<path class="st1" d="M419.3,782.7l-15.1,2.8l9-1.2h0.2l9.8-1.3v-1.1L419.3,782.7z M360.4,732.7v-0.1 M360.4,730.7L360.4,730.7
		 M360.4,131.7L504,167l10.2-0.9l-4.8,5.7l116.3,104.8l-11.3,35.1l10.5,94.5l-17.5,139.8l0.8,144.8L433.8,804.3l-73.5,11.1"/>
	<polygon class="st1" points="187.6,135.8 192.1,85.6 155.1,43.8 118,25.7 75.4,54.3 33.5,66.3 33.5,106.6 0.5,105.8 0.5,162.1
		5.3,234.6 50.4,294.9 95.1,276.5 122.6,251.7 	"/>
	<line class="st1" x1="360.4" y1="730.7" x2="360.4" y2="730.6"/>
	<polyline class="st1" points="360.4,815.4 286.9,804.3 112.6,690.8 113.5,545.9 95.9,406.1 106.4,311.7 95.1,276.5 211.4,171.7
		206.6,166.1 216.7,167 360.4,131.7 	"/>
	<line class="st1" x1="360.4" y1="732.7" x2="360.4" y2="732.6"/>
	<g>
		<polygon class="st1" points="183.1,497 165.5,509.5 147,512.2 131.1,507.5 128.2,489.3 131.1,480.9 164.3,475.7 		"/>
		<polygon class="st1" points="137,488.8 133.9,496.7 140.1,499.2 147,494 147,488.8 		"/>
	</g>
	<polygon class="st1" points="122.6,581.4 151.7,716.2 268.8,792.7 163.8,709.1 	"/>
	<polygon class="st1" points="596.3,581.4 567.2,716.2 450,792.7 555.1,709.1 	"/>
	<line class="st1" x1="163.8" y1="709.1" x2="122.6" y2="581.4"/>
	<polygon class="st1" points="191.5,482.3 164.1,475.7 131.1,480.9 141.1,460 169.6,462.1 	"/>
	<polygon class="st1" points="183.1,497 175.9,534.3 140.4,557.8 131.1,507.5 147,512.2 165.5,509.5 	"/>
	<polygon class="st1" points="122.6,501.8 140.4,458.5 140.4,446.3 187.6,406.1 183.1,311.6 133.9,358 128.2,402.1 133.9,444.8 	"/>
	<polygon class="st1" points="122.6,501.8 140.4,458.5 140.4,446.3 187.6,406.1 141.8,447.6 141.1,460 	"/>
	<path class="st1" d="M177.7,413.2"/>
	<polyline class="st1" points="360.4,25.7 352.8,65.3 348.9,134.5 346.5,176.2 324.3,266 321,279.6 286.7,380.1 280.2,399.4
		239.3,454 227.7,504.7 268.8,555.8 318.8,581.4 360.4,581.4 	"/>
	<polygon class="st1" points="286.7,380.1 256.9,380.1 248.6,370.2 266.9,343.4 324.3,265.9 320.9,279.6 	"/>
	<polygon class="st1" points="211.4,171.7 195.7,153.4 187.6,135.8 133.9,178.2 122.6,229.8 111.3,246.1 122.6,251.7 	"/>
	<polygon class="st1" points="122.6,251.7 211.4,171.7 195.7,153.4 187.6,135.8 194.9,158.9 206.5,170.9 	"/>
	<polygon class="st1" points="148.8,179.6 150.3,165.3 187.6,135.8 192.1,85.6 155.1,43.8 118,25.7 75.4,54.3 35.4,65.8 33.5,106.6
		33.5,66.3 23.7,55.8 34.6,61.1 24.5,52.1 38.2,59.7 36.5,55.3 29.7,51.7 46.6,51.3 51.1,52.2 45.9,44.5 57.8,50.6 56.5,47.4
		57.6,40.3 58.2,43.7 63.9,50.9 62.7,44.5 67,48.9 64.4,40.8 69.2,45.5 77.2,47 76.9,38 80.2,42.4 81.4,35.2 82,44.9 83.1,30.9
		86.4,40.3 87.1,38.6 85.6,33.8 90.5,33.4 95.3,28.5 99,30.5 98.1,21.9 101.1,27 103,28.1 100.3,24.4 102.5,12 102.3,22 109.4,24.5
		113.2,15.6 113.9,19.8 115.1,11.4 116,15.1 116.1,7.9 119,14.8 117.1,4.9 119.6,10 120.4,2.8 122,8.9 125.5,3.6 124.1,13.5
		126.8,11.7 130.4,19 155.7,31.8 202.7,82.8 197.2,134.9 190,141.5 152.1,165.9 	"/>
	<polygon class="st1" points="101.2,251.7 111.3,246.1 122.6,229.8 133.9,178.2 167,140.5 167,93.8 122.6,50.4 126.8,62.5
		96.3,91.2 69.3,110.5 78.8,118.1 78.8,138.6 69.3,141.1 78.2,148.2 96.3,179.6 101.9,214.6 104.4,240.2 	"/>
	<polygon class="st1" points="95.1,276.5 122.6,251.7 111.3,246.1 101.2,251.7 89.5,225.8 69.3,241.4 69.3,210.1 53.9,193.8
		52.3,179.6 34.1,114.3 8,116.9 0.5,141.7 0.5,162.1 5.3,234.6 50.4,294.9 	"/>
	<polygon class="st1" points="0.5,105.8 0.5,162.1 5.3,234.6 50.4,294.9 95.1,276.5 50.9,291.7 9.1,231.4 2.3,161.2 	"/>
	<polygon class="st1" points="190,141.5 152.1,165.9 164.9,171.1 167,181.5 168.3,193.8 155.5,209.5 153.9,221.6 206.5,170.9
		194.9,158.9 	"/>
	<polygon class="st1" points="216.7,166.9 210,167.4 211.4,171.7 206.5,166.1 	"/>
	<polygon class="st1" points="200.5,181.5 231.6,174.5 341.2,169.6 278.6,166.1 254.3,157.7 216.7,166.9 210,167.4 211.4,171.7 	"/>
	<polygon class="st1" points="533.1,135.8 528.7,85.6 565.6,43.8 602.7,25.7 645.4,54.3 687.2,66.3 702.6,84.9 720.2,105.8
		720.2,162.1 715.4,234.6 670.3,294.9 625.6,276.5 598.1,251.7 	"/>
	<g>
		<polygon class="st1" points="537.6,497 555.3,509.5 573.8,512.2 589.6,507.5 592.6,489.3 589.6,480.9 556.5,475.7 541.3,478.1
			"/>
		<polygon class="st1" points="553.6,486.6 550.5,494.5 556.8,497 563.6,491.8 563.6,486.6 		"/>
	</g>
	<polygon class="st1" points="523.2,480.9 556.6,475.7 589.6,480.9 579.7,460 544.4,463.3 	"/>
	<polygon class="st1" points="537.6,497 546.9,534.4 586.8,555.8 589.6,507.5 573.8,512.2 555.3,509.5 	"/>
	<polygon class="st1" points="598.1,501.8 580.3,458.5 580.3,446.3 533.1,406.1 534.4,380.1 472.1,298.9 537.6,311.6 586.8,358
		592.6,402.1 586.8,444.8 	"/>
	<polygon class="st1" points="122.6,502 140.5,458.7 140.5,446.5 187.7,406.2 186.4,380.3 248.7,299.1 183.2,311.8 134,358.2
		128.2,402.3 134,444.9 	"/>
	<polygon class="st1" points="598.1,501.8 580.3,458.5 580.3,446.3 533.1,406.1 579,447.6 579.7,460 	"/>
	<path class="st1" d="M543,413.2"/>
	<polyline class="st1" points="360.4,25.7 367.9,65.3 371.9,134.5 374.3,176.2 396.4,266 396.5,266.1 399.8,279.6 434.1,380.1
		440.6,399.4 481.4,454 493,504.7 452,555.8 402,581.4 360.4,581.4 	"/>
	<polygon class="st1" points="434,380.1 463.9,380.1 472.1,370.2 453.8,343.4 396.4,265.9 399.8,279.6 	"/>
	<polygon class="st1" points="509.4,171.7 525,153.4 533.1,135.8 586.8,178.2 598.1,229.8 609.5,246.1 598.1,251.7 	"/>
	<polygon class="st1" points="598.1,251.7 509.4,171.7 525,153.4 533.1,135.8 525.8,158.9 514.3,170.9 	"/>
	<polygon class="st1" points="571.9,179.6 570.4,165.3 533.1,135.8 528.7,85.6 565.6,43.8 602.7,25.7 645.4,54.3 685.3,65.8
		720.2,105.8 687.2,66.3 697.1,55.8 686.1,61.1 696.3,52.1 682.6,59.7 684.3,55.3 691,51.7 674.1,51.3 669.7,52.2 674.8,44.5
		663,50.6 664.3,47.4 663.1,40.3 662.5,43.7 656.9,50.9 658,44.5 653.8,48.9 656.3,40.8 651.6,45.5 643.6,47 643.8,38 640.6,42.4
		639.3,35.2 638.8,44.9 637.6,30.9 634.3,40.3 633.6,38.6 635.1,33.8 630.3,33.4 625.4,28.5 621.8,30.5 622.6,21.9 619.6,27
		617.7,28.1 620.4,24.4 618.3,12 618.4,22 611.3,24.5 607.6,15.6 606.9,19.8 605.7,11.4 604.7,15.1 604.6,7.9 601.8,14.8 603.7,4.9
		601.1,10 600.3,2.8 598.7,8.9 595.2,3.6 596.7,13.5 594,11.7 590.3,19 565,31.8 518.1,82.8 523.6,134.9 530.8,141.5 568.7,165.9
		"/>
	<polygon class="st1" points="619.5,251.7 609.5,246.1 598.1,229.8 586.8,178.2 553.8,140.5 553.8,93.8 598.1,50.4 594,62.5
		624.5,91.2 651.5,110.5 641.9,118.1 641.9,138.6 651.5,141.1 642.5,148.2 624.5,179.6 618.9,214.6 616.3,240.2 	"/>
	<polygon class="st1" points="625.6,276.5 598.1,251.7 609.5,246.1 619.5,251.7 631.2,225.8 651.5,241.4 651.5,210.1 666.8,193.8
		668.4,179.6 686.7,114.3 712.8,116.9 720.2,141.7 720.2,162.1 715.4,234.6 670.3,294.9 	"/>
	<polygon class="st1" points="720.2,105.8 720.2,162.1 715.4,234.6 670.3,294.9 625.6,276.5 669.9,291.7 711.7,231.4 718.5,161.2
		"/>
	<polygon class="st1" points="530.8,141.5 568.7,165.9 555.9,171.1 553.8,181.5 552.4,193.8 565.2,209.5 566.9,221.6 514.3,170.9
		525.8,158.9 	"/>
	<polygon class="st1" points="504,166.9 510.8,167.4 509.4,171.7 514.2,166.1 	"/>
	<polygon class="st1" points="520.2,181.5 489.1,174.5 379.5,169.6 442.2,166.1 466.4,157.7 504,166.9 510.8,167.4 509.4,171.7 	"/>
	<polygon class="st1" points="360.4,25.7 352.8,65.3 346.5,176.2 324.3,265.9 320.9,279.6 280.1,399.5 239.3,454 227.7,504.6
		268.8,555.8 318.8,581.4 360.4,581.4 402,581.4 451.9,555.8 493,504.6 443.7,544.3 387.8,543 344.8,524.2 363.8,449.5 370.4,318.6
		367.1,190.1 	"/>
	<polygon class="st1" points="571.9,179.6 570.4,159.5 553.8,140.5 553.8,93.8 598.1,50.4 610.6,40.2 602.7,25.7 565.6,43.8
		528.7,85.6 533.1,135.8 570.4,165.3 	"/>
	<polygon class="st1" points="227.7,504.6 277.2,543.3 318.8,561.4 395.4,570.5 449.3,554.5 493,504.6 451.9,555.8 402,581.4
		318.8,581.4 268.8,555.8 	"/>
	<polygon class="st1" points="263.9,592 318.8,581.4 402,581.4 463.9,549.7 401.5,582.5 360.5,582.6 355.7,584.1 318.2,582.6 	"/>
	<polygon class="st1" points="314.6,592 335.2,590.6 356.2,583.9 360.5,582.6 363.9,582.5 334.8,592 	"/>
	<polygon class="st1" points="268.8,701.7 314.6,694.6 341.5,720.5 374.5,720.5 341.3,717.6 329.5,705.2 339.2,705.4 354.6,709.2
		374.5,707.6 403.4,693.3 432,691.6 401.2,692.5 375.1,706.1 353.7,708 338.4,704.4 334.5,701.7 334.1,697.5 333.8,702.4 336,703.8
		326.9,701.7 316.4,691.6 	"/>
	<polygon class="st1" points="456.7,687 429.3,677.5 392.8,685 432,674.8 	"/>
	<polygon class="st1" points="411.5,674.8 366.8,687 321,680.9 286.7,665.3 233,682.5 238.6,678.2 281.3,664.3 286.4,662.8
		323.2,678.7 351.5,683.7 373,683.5 	"/>
	<polygon class="st1" points="371.7,668.4 443.1,655.8 476.9,665.4 445.3,651.5 	"/>
	<polygon class="st1" points="401.5,582.5 424.3,576.9 444.9,579.7 421.9,579.7 398.9,583.9 363.9,582.5 	"/>
	<polygon class="st1" points="423.2,781.9 423.2,782.9 404.2,785.5 419.2,782.9 419.3,782.7 	"/>
	<polygon class="st1" points="419.1,723.5 406.9,725.6 369.5,731.7 363.4,732.7 360.4,732.7 317.6,732.9 316.6,733.4 304,741
		314.6,731.6 316.6,731.5 323.8,731.4 325.2,731.4 328.6,731.3 348.2,730.9 360.4,730.7 406,725.2 	"/>
	<polyline class="st1" points="318.7,725.6 318.5,725.4 318.4,725.4 318.2,725.3 301.3,723.2 301.2,723.2 297.6,722.7 287.8,722.7
		286,722.7 288,723 288.1,723 297.6,724.4 303.6,725.4 303.6,725.4 311.6,726.6 312.1,726.7 314.4,727.1 315.3,727.5 316.6,728.1
		"/>
	<polyline class="st1" points="328.6,731.3 328.8,731.4 325.2,731.4 323.8,731.4 	"/>
	<polygon class="st1" points="419.3,782.7 419.2,782.9 404.2,785.5 	"/>
	<polygon class="st1" points="476.2,708.8 485.5,722.8 474.6,709.8 446.9,711.2 424.8,733.3 428.2,760.4 423.4,732.8 446.2,708.8
		"/>
	<polygon class="st1" points="470.8,722.9 474.8,740.5 465.1,738 448,751 456.5,727.1 467.1,720.1 	"/>
	<g>
		<line class="st1" x1="360.4" y1="732.7" x2="360.4" y2="732.6"/>
		<polyline class="st1" points="360.4,730.7 360.4,730.6 405.7,725 419.3,723.3 423.2,722.8 423.2,732.7 423.2,732.8 423.2,772.4
			423.2,772.9 423.2,781 423.2,781.3 423.2,781.9 419.3,782.7 404.2,785.5 369.7,790.2 360.4,796.2 		"/>
		<polygon class="st1" points="446.2,708.8 423.4,732.8 428.2,760.4 423.2,772.9 419.6,781.8 419.4,782.3 419.4,782.4 419.3,782.7
			404.2,785.5 404.2,726.6 415.9,726.6 419.3,723.3 440.1,703.3 476.2,708.8 		"/>
		<polygon class="st1" points="434.3,744.8 428.2,760.4 418.9,782.4 454.5,773.4 469.6,760.8 469.1,754.3 465.7,759 448,751
			449.8,746 		"/>
		<polygon class="st1" points="476.2,768.9 457.8,775.5 423.2,781.9 419.3,782.7 404.2,785.5 419.1,781.9 419.2,781.9 419.6,781.8
			423.2,781 454.5,773.4 469.6,760.8 		"/>
		<polygon class="st1" points="469.6,760.8 469.1,754.3 465.7,759 448,751 467.7,731.2 474.8,740.5 		"/>
		<polygon class="st1" points="434.3,744.8 436.9,735.7 449.4,719.8 470.6,713.5 474.8,740.5 467.9,733.3 456.4,731.2 452.5,738.2
			449.8,746 		"/>
	</g>
	<g>
		<line class="st1" x1="360.4" y1="732.7" x2="360.4" y2="732.6"/>
		<polyline class="st1" points="360.4,730.7 318.5,725.4 318.4,725.4 301.5,723.3 297.6,722.8 297.6,724.4 297.6,738.6 297.6,738.8
			297.6,750.6 297.6,755.4 297.6,772.4 297.6,772.9 297.6,781 297.6,781.4 297.6,781.9 301.5,782.7 316.6,785.5 351.1,790.2
			360.4,796.2 		"/>
		<polygon class="st1" points="316.6,726.6 316.6,785.5 301.5,782.7 301.4,782.3 301.4,782.3 301.2,781.8 297.6,772.9 292.6,760.5
			293.5,755.5 294.1,752 296.2,739.7 297.4,732.9 288.1,723 288,723 287.8,722.7 274.6,708.8 244.6,708.8 280.6,703.3 301.2,723.2
			301.3,723.2 301.5,723.3 303.6,725.4 303.6,725.4 304.9,726.6 		"/>
		<polygon class="st1" points="286.5,744.8 292.6,760.4 301.9,782.4 266.3,773.5 251.2,760.8 251.7,754.4 255.1,759.1 272.8,751.1
			271,746 		"/>
		<polygon class="st1" points="244.6,768.9 263,775.5 297.6,781.9 301.5,782.7 316.6,785.5 301.7,781.9 301.6,781.9 301.2,781.9
			297.6,781 266.3,773.4 251.2,760.8 		"/>
		<polygon class="st1" points="251.2,760.8 251.7,754.4 255.1,759.1 272.8,751.1 253.1,731.2 246,740.5 		"/>
		<polygon class="st1" points="286.5,744.8 283.9,735.8 271.4,719.8 250.2,713.5 246,740.5 252.9,733.3 264.4,731.2 268.3,738.2
			271,746 		"/>
	</g>
	<polyline class="st1" points="297.6,738.6 296.2,739.7 297.6,738.8 	"/>
	<polyline class="st1" points="315.3,727.5 316.6,726.6 321.8,727.3 348.2,730.9 360.4,732.6 361.6,732.7 369.5,731.7 403.5,727.4
		404.2,727.6 423.2,732.8 423.4,732.9 423.2,732.7 409.4,726.6 406.9,725.6 406,725.2 405.7,725 360.4,730.7 318.7,725.6 	"/>
	<line class="st1" x1="312.2" y1="726.6" x2="312.1" y2="726.7"/>
	<polygon class="st1" points="294.1,752 323.2,741 413.7,746.5 316.6,747.6 325.5,749.7 363.1,754.4 394.7,755.4 421.8,775.5
		392.8,759.5 334.4,755.2 293.5,755.5 	"/>
	<polygon class="st1" points="419.3,782.7 393.8,771.6 307.4,775.5 378.8,774.4 381.4,775.5 363.3,777.1 352.3,777.1 365.8,779.4
		389.9,777.1 413.7,783.2 	"/>
	<polygon class="st1" points="301.5,782.7 350.3,796 360.4,804.6 370.3,796 419.3,782.7 369.7,790.2 360.4,796.2 351.1,790.2 	"/>
</g>
</svg>
