<?xml version="1.0" encoding="utf-8"?>
<!-- Generator: Adobe Illustrator 22.0.1, SVG Export Plug-In . SVG Version: 6.00 Build 0)  -->
<svg version="1.1" id="Layer_1" xmlns="http://www.w3.org/2000/svg" xmlns:xlink="http://www.w3.org/1999/xlink" x="0px" y="0px"
	 viewBox="0 0 1098.8 1236.5" style="enable-background:new 0 0 1098.8 1236.5;" xml:space="preserve">
<style type="text/css">
	.st0{opacity:0.5;}
	.st1{fill:none;stroke:#F9CB8F;stroke-miterlimit:10;}
	.st2{opacity:0.54;fill:none;stroke:#F9CB8F;stroke-miterlimit:10;}
	.st3{opacity:0.48;fill:none;stroke:#F9CB8F;stroke-miterlimit:10;}
</style>
<g class="st0">
	<polygon class="st1" points="550.5,329.1 550.5,1215.5 453.9,1216 407.1,1204.6 223.8,961.3 75,752.9 75.1,590.6 16.4,516
		16.5,331.9 0.5,263.3 35.4,47.8 94.1,0.6 235.6,121.6 369,330 467.8,304.6 	"/>
	<polygon class="st1" points="368.6,1016 453.3,1069.9 550.5,1076.7 548.3,1235.9 453.9,1216 407.1,1204.6 349.6,1057.3 	"/>
	<polygon class="st1" points="407.1,1204.6 333.8,1019.7 319.7,927.9 250.7,910.1 230.7,884.2 217.5,951.6 	"/>
	<polygon class="st1" points="550.5,1158.8 524.2,1141.4 467.8,1129.2 453.3,1069.9 479.4,1041.8 550.5,1044.7 	"/>
	<polygon class="st1" points="504.5,1098.7 496.3,1081.1 489.6,1069.8 475.5,1069.9 464.9,1084.4 471.5,1102.3 490.4,1102.2
		499.6,1098.7 	"/>
	<polygon class="st1" points="548.3,1153.7 545.1,1192.2 454.7,1195.9 550.4,1204.5 	"/>
	<polygon class="st1" points="453.5,745.6 550.5,820.2 550.5,1044.7 479.4,1041.8 453.3,1069.9 368.6,1016 	"/>
	<polygon class="st1" points="397.5,677.5 359.4,682.8 328.2,704.6 335.5,734.9 384.4,753.7 424.4,717.5 	"/>
	<polygon class="st1" points="366.1,683 359.4,713.3 362.7,730.4 379.4,746 388,710.7 384.4,693.1 376.3,683.4 	"/>
	<polygon class="st1" points="424.4,717.5 396.3,687.8 359.4,686.7 328.2,704.6 335.5,734.9 384.4,753.7 424.4,717.5 430.4,726.4
		383.1,757.7 330.4,735.9 315.3,705.9 326.1,702.1 359.4,678.5 397.5,677.5 	"/>
	<polygon class="st2" points="345.7,694.6 359.4,686.7 396.3,687.8 415.4,708 392.8,708.1 365.9,708.2 	"/>
	<polygon class="st1" points="453.5,745.6 504.8,585.8 479.3,443.4 355.1,595.1 291.2,573.6 206.3,651.2 177.9,718.8 283.5,708.7
		315.3,695.9 359.4,671.1 402.1,670.9 443.5,719.8 443.5,635.5 450.3,642.7 	"/>
	<polygon class="st1" points="160.5,829.9 148.6,749.7 206.3,651.2 177.9,718.8 283.5,708.7 283.5,708.7 315.3,705.9 330.4,735.9
		383.1,757.7 430.4,726.4 443.5,719.8 349.6,1057.3 333.8,1019.7 319.7,927.9 250.7,910.1 230.7,884.2 217.5,951.6 	"/>
	<polygon class="st1" points="75,752.9 103.4,569.5 138.9,528.8 16.4,516 75.1,590.6 	"/>
	<polygon class="st1" points="138.9,528.8 77.7,418.7 16.5,378.5 16.4,516 	"/>
	<polygon class="st1" points="77.7,418.7 16.5,331.9 0.5,263.3 35.4,47.8 94.1,0.6 149,47.6 223.2,160.1 240.3,314.3 223.1,393
		168.1,320.5 178.3,209.2 77.9,120.1 77.9,120.1 36.1,209.9 38.6,286.2 	"/>
	<polygon class="st1" points="149,47.6 223.2,160.1 291.4,302.4 328.6,417.3 369,330 235.6,121.6 	"/>
	<polygon class="st1" points="223.2,160.1 240.3,314.3 223,417.9 223,452.9 328.6,417.3 291.4,302.4 	"/>
	<polygon class="st1" points="223,452.9 191.3,453.1 139,393.4 148.8,445.1 138.9,528.8 	"/>
	<polygon class="st1" points="223,452.9 223.1,393 168.1,320.5 178.3,209.2 77.9,120.1 77.9,120.1 36.1,209.9 38.6,286.2
		77.7,418.7 59.5,425.5 108.8,474.7 138.9,528.8 148.8,445.1 139,393.4 191.3,453.1 	"/>
	<polygon class="st1" points="35.4,47.8 100.5,47.9 223.2,160.1 149,47.6 94.1,0.6 	"/>
	<polygon class="st1" points="479.4,1041.8 403.7,946 394.2,908.1 384.3,935.2 	"/>
	<polygon class="st1" points="369,330 235.6,121.6 94.1,0.6 35.4,47.8 95,18.1 229.8,122.7 	"/>
	<polygon class="st3" points="77.9,120.1 77.8,264.1 99.6,306.5 91.8,340.9 77.7,418.7 77.7,418.7 38.6,286.2 36.1,209.9
		77.9,120.1 	"/>
	<polygon class="st1" points="407.1,1204.6 349.6,1057.3 443.5,719.8 443.5,635.5 450.3,642.7 453.5,745.6 382.7,1009.7
		381.4,1084.4 	"/>
	<polygon class="st1" points="443.5,719.8 402.1,670.9 359.4,671.1 315.3,695.9 283.5,708.7 315.3,705.9 326.1,702.1 359.4,678.5
		397.5,677.5 439,739.3 	"/>
	<polygon class="st1" points="548.3,329.1 548.3,1215.5 645,1216 691.7,1204.6 875,961.3 1023.8,752.9 1023.7,590.6 1082.4,516
		1082.3,331.9 1098.3,263.3 1063.5,47.8 1004.7,0.6 863.2,121.6 729.9,330 631,304.6 	"/>
	<polygon class="st1" points="730.2,1016 645.5,1069.9 548.3,1076.7 548.3,1235.9 645,1216 691.7,1204.6 749.2,1057.3 	"/>
	<polygon class="st1" points="691.7,1204.6 765,1019.7 779.1,927.9 848.1,910.1 868.1,884.2 881.3,951.6 	"/>
	<polygon class="st1" points="548.3,1157.4 574.6,1141.4 631,1129.2 645.5,1069.9 619.4,1041.8 548.3,1044.7 	"/>
	<polygon class="st1" points="594.3,1098.7 602.5,1081.1 609.3,1069.8 623.3,1069.9 633.9,1084.4 627.3,1102.3 608.4,1102.2
		599.2,1098.7 	"/>
	<polygon class="st1" points="548.3,1153.7 551.6,1191.6 644.2,1195.9 548.4,1204.5 	"/>
	<polygon class="st1" points="645.3,745.6 548.3,820.2 548.3,1044.7 619.4,1041.8 645.5,1069.9 730.2,1016 	"/>
	<polygon class="st1" points="701.3,677.5 739.4,682.8 770.6,704.6 763.3,734.9 714.4,753.7 674.4,717.5 	"/>
	<polygon class="st1" points="732.7,683 739.4,713.3 736.1,730.4 719.4,746 710.8,710.7 714.4,693.1 722.5,683.4 	"/>
	<polygon class="st1" points="674.4,717.5 702.6,687.8 739.4,686.7 770.6,704.6 763.3,734.9 714.4,753.7 674.4,717.5 668.4,726.4
		715.7,757.7 768.4,735.9 783.5,705.9 772.7,702.1 739.4,678.5 701.3,677.5 	"/>
	<polygon class="st2" points="753.2,694.6 739.4,686.7 702.6,687.8 683.4,708 706,708.1 732.9,708.2 	"/>
	<polygon class="st1" points="645.3,745.6 594,585.8 619.5,443.4 743.7,595.1 807.6,573.6 892.5,651.2 920.9,718.8 815.3,708.7
		783.5,695.9 739.4,671.1 696.7,670.9 655.3,719.8 655.3,635.5 648.5,642.7 	"/>
	<polygon class="st1" points="938.4,829.9 950.2,749.7 892.5,651.2 920.9,718.8 815.3,708.7 815.3,708.7 783.5,705.9 768.4,735.9
		715.7,757.7 668.4,726.4 655.3,719.8 749.2,1057.3 765,1019.7 779.1,927.9 848.1,910.1 868.1,884.2 881.3,951.6 	"/>
	<polygon class="st1" points="1023.8,752.9 995.4,569.5 959.9,528.8 1082.4,516 1023.7,590.6 	"/>
	<polygon class="st1" points="959.9,528.8 1021.1,418.7 1082.4,378.5 1082.4,516 	"/>
	<polygon class="st1" points="1021.1,418.7 1082.3,331.9 1098.3,263.3 1063.5,47.8 1004.7,0.6 949.8,47.6 875.6,160.1 858.5,314.3
		875.8,393 930.8,320.5 920.6,209.2 1020.9,120.1 1020.9,120.1 1062.7,209.9 1060.2,286.2 	"/>
	<polygon class="st1" points="949.8,47.6 875.6,160.1 807.4,302.4 770.2,417.3 729.9,330 863.2,121.6 	"/>
	<polygon class="st1" points="875.6,160.1 858.5,314.3 875.8,417.9 875.8,452.9 770.2,417.3 807.4,302.4 	"/>
	<polygon class="st1" points="875.8,452.9 907.5,453.1 959.9,393.4 950,445.1 959.9,528.8 	"/>
	<polygon class="st1" points="875.8,452.9 875.8,393 930.8,320.5 920.6,209.2 1020.9,120.1 1020.9,120.1 1062.7,209.9 1060.2,286.2
		1021.1,418.7 1039.3,425.5 990,474.7 959.9,528.8 950,445.1 959.9,393.4 907.5,453.1 	"/>
	<polygon class="st1" points="1063.5,47.8 998.3,47.9 875.6,160.1 949.8,47.6 1004.7,0.6 	"/>
	<polygon class="st1" points="631,304.6 549.7,498.8 548.1,300.9 	"/>
	<polygon class="st1" points="619.4,1041.8 695.1,946 704.6,908.1 714.5,935.2 	"/>
	<polygon class="st1" points="729.9,330 863.2,121.6 1004.7,0.6 1063.5,47.8 1003.8,18.1 869,122.7 	"/>
	<polygon class="st3" points="1020.9,120.1 1021,264.1 999.2,306.5 1007.1,340.9 1021.1,418.7 1021.1,418.7 1060.2,286.2
		1062.7,209.9 1020.9,120.1 	"/>
	<polygon class="st1" points="691.7,1204.6 749.2,1057.3 655.3,719.8 655.3,635.5 648.5,642.7 645.3,745.6 716.1,1009.7
		717.4,1084.4 	"/>
	<polygon class="st1" points="655.3,719.8 696.7,670.9 739.4,671.1 783.5,695.9 815.3,708.7 783.5,705.9 772.7,702.1 739.4,678.5
		701.3,677.5 659.8,739.3 	"/>
	<polygon class="st1" points="467.8,304.6 549.7,498.8 548.1,300.9 	"/>
	<path class="st1" d="M548.3,1044.7"/>
	<polygon class="st1" points="550.5,1076.7 519.4,1063 486.6,1055.8 453.3,1069.9 479.4,1041.8 548.3,1031.5 	"/>
	<polygon class="st1" points="548.3,1076.7 579.4,1063 612.2,1055.8 645.5,1069.9 619.4,1041.8 548.3,1031.5 	"/>
	<path class="st1" d="M674.4,730.4"/>
	<polygon class="st1" points="659.8,739.3 683.4,739.3 725.9,771.8 778.5,746 823.3,763.3 783.5,705.9 768.4,735.9 715.7,757.7
		668.4,726.4 	"/>
	<polygon class="st1" points="439,739.7 415.4,739.7 372.9,772.2 320.3,746.5 275.5,763.8 315.3,706.3 330.4,736.3 383.1,758.1
		430.4,726.9 	"/>
</g>
</svg>
